<?xml version="1.0" standalone="no"?>
<!DOCTYPE svg PUBLIC "-//W3C//DTD SVG 20010904//EN"
 "http://www.w3.org/TR/2001/REC-SVG-20010904/DTD/svg10.dtd">
<svg version="1.0" xmlns="http://www.w3.org/2000/svg"
 width="700.000000pt" height="700.000000pt" viewBox="0 0 700.000000 700.000000"
 preserveAspectRatio="xMidYMid meet">
<metadata>
Created by potrace 1.14, written by Peter Selinger 2001-2017
</metadata>
<g transform="translate(0.000000,700.000000) scale(0.100000,-0.100000)"
fill="#000000" stroke="none">
<path d="M3308 6985 c-2 -2 -47 -6 -101 -10 -54 -3 -106 -8 -115 -10 -9 -1
-42 -6 -72 -10 -60 -7 -92 -12 -130 -20 -13 -2 -42 -7 -65 -11 -69 -10 -335
-81 -450 -120 -705 -238 -1332 -712 -1758 -1329 -73 -106 -62 -88 -160 -258
-118 -206 -206 -402 -282 -634 -38 -114 -82 -274 -91 -333 -3 -19 -7 -37 -9
-40 -4 -7 -33 -171 -41 -232 -3 -24 -7 -54 -10 -68 -22 -135 -26 -714 -5 -749
4 -5 220 203 480 464 l474 474 -22 50 c-106 248 62 524 330 539 236 14 425
-180 405 -415 -3 -46 -15 -93 -29 -123 l-23 -49 531 -531 531 -531 59 28 c53
24 72 28 155 28 77 0 104 -5 145 -23 l49 -23 990 990 989 989 -18 43 c-26 66
-29 87 -28 173 1 69 6 88 37 152 86 173 272 254 459 200 218 -63 335 -332 234
-535 -9 -19 -17 -37 -17 -42 0 -6 1150 -1161 1208 -1213 21 -18 21 -18 17 15
-15 123 -28 211 -36 254 -5 28 -11 64 -14 80 -55 324 -199 714 -385 1050 -124
225 -321 492 -500 679 -63 66 -148 150 -220 216 -101 94 -327 264 -471 355
-148 93 -369 207 -527 272 -78 31 -263 98 -302 108 -8 2 -55 16 -105 30 -182
51 -363 84 -610 111 -59 6 -492 14 -497 9z"/>
<path d="M4221 3915 l-984 -985 21 -47 c118 -260 -65 -554 -344 -554 -275 0
-460 268 -363 527 l21 56 -531 530 -530 531 -53 -24 c-44 -19 -70 -23 -153
-23 -84 0 -109 4 -153 23 l-54 24 -526 -526 -526 -526 13 -68 c171 -897 681
-1687 1427 -2214 191 -135 386 -246 574 -329 52 -23 104 -45 115 -50 170 -76
487 -168 705 -206 14 -2 36 -6 50 -9 14 -3 48 -7 75 -11 28 -3 61 -7 75 -10
163 -26 648 -25 852 2 40 6 263 45 333 59 190 38 559 168 760 268 160 79 444
251 533 322 167 132 247 198 291 239 434 403 752 883 939 1416 52 148 97 302
118 405 28 138 48 254 58 345 14 122 18 176 21 302 l4 137 -675 675 c-371 371
-681 679 -688 685 -10 9 -26 6 -62 -10 -89 -39 -260 -30 -329 17 -11 8 -22 14
-25 14 -3 0 -448 -444 -989 -985z"/>
</g>
</svg>
